<?xml version="1.0" standalone="no"?>
<!DOCTYPE svg PUBLIC "-//W3C//DTD SVG 20010904//EN"
 "http://www.w3.org/TR/2001/REC-SVG-20010904/DTD/svg10.dtd">
<svg version="1.0" xmlns="http://www.w3.org/2000/svg"
 width="800.000000pt" height="800.000000pt" viewBox="0 0 800.000000 800.000000"
 preserveAspectRatio="xMidYMid meet">
<metadata>
Created by potrace 1.11, written by Peter Selinger 2001-2013
</metadata>
<g transform="translate(0.000000,800.000000) scale(0.100000,-0.100000)"
fill="#000000" stroke="none">
<path d="M3944 7800 c-12 -5 -89 -59 -172 -122 -692 -520 -1498 -810 -2355
-846 -204 -9 -224 -15 -279 -83 -34 -42 -38 -66 -72 -379 -91 -834 -42 -1705
140 -2485 347 -1486 1183 -2692 2429 -3507 55 -36 138 -87 184 -114 79 -45 91
-49 163 -53 101 -4 135 8 289 104 678 421 1274 995 1715 1652 84 124 106 161
210 340 65 112 209 397 259 513 292 672 461 1369 525 2170 32 399 22 944 -26
1380 -34 314 -38 337 -72 379 -55 68 -75 74 -279 83 -875 37 -1698 339 -2399
879 -56 44 -114 83 -129 89 -31 12 -102 12 -131 0z m1883 -2265 c65 -19 143
-88 177 -157 38 -76 37 -184 -2 -259 -34 -67 -1877 -2556 -1941 -2622 -141
-146 -383 -165 -544 -43 -23 17 -276 275 -562 572 -586 608 -569 586 -570 729
0 96 30 170 93 232 69 67 123 88 227 88 78 0 98 -4 141 -26 28 -15 225 -149
439 -299 214 -149 393 -273 399 -275 6 -2 421 444 921 992 501 547 924 1006
942 1020 76 59 182 77 280 48z"/>
</g>
</svg>
