<svg version="1.1" id="Layer_1" xmlns="http://www.w3.org/2000/svg" xmlns:xlink="http://www.w3.org/1999/xlink" x="0px" y="0px"
	 width="240.941px" height="155.91px" viewBox="0 0 240.941 155.91" enable-background="new 0 0 240.941 155.91"
	 xml:space="preserve">
<path fill="#40C4FF" d="M180.001,23.451c-0.265-1.849-1.837-3.229-3.705-3.253c-10.736-0.127-21.355-2.251-31.314-6.263
	c-7.973-3.224-15.42-7.622-22.094-13.047c-1.455-1.179-3.537-1.179-4.993,0c-6.673,5.426-14.12,9.824-22.094,13.047
	c-9.959,4.012-20.578,6.136-31.314,6.263c-1.868,0.024-3.44,1.404-3.706,3.253c-2.401,16.214-6.958,66.317,26.095,106.121
	c8.509,10.155,18.687,18.786,30.097,25.521c2.02,1.205,4.538,1.205,6.559,0c11.41-6.732,21.589-15.363,30.096-25.521
	C186.96,89.75,182.403,39.647,180.001,23.451z M160.483,56.54l-37.873,51.181l-0.243,0.331c-2.846,3.87-8.29,4.702-12.161,1.856
	c-0.006-0.004-0.012-0.008-0.017-0.013c-0.403-0.3-0.782-0.631-1.131-0.991L88.738,87.75c-2.525-2.729-2.361-6.988,0.368-9.515
	c2.292-2.121,5.74-2.388,8.331-0.646l16.353,11.465l37.09-40.483c2.199-2.652,6.133-3.018,8.785-0.817
	C162.317,49.955,162.683,53.888,160.483,56.54L160.483,56.54z"/>
</svg>
